<svg fill="none" viewBox="0 0 60 60" xmlns="http://www.w3.org/2000/svg">
<rect width="60" height="60" fill="#68B738"/>
<g clip-path="url(#b)" fill="#fff">
<path d="m35.776 31.473c-1.706 0-3.0885 1.4784-3.0885 3.3011 0 1.8241 1.383 3.3019 3.0885 3.3019 1.7056 0 3.0881-1.4783 3.0881-3.3019 0-1.8232-1.383-3.3011-3.0881-3.3011zm0 5.0133c-0.884 0-1.6009-0.7663-1.6009-1.7113 0-0.946 0.7169-1.7118 1.6009-1.7118 0.8841 0 1.6014 0.7658 1.6014 1.7118 0 0.945-0.7173 1.7113-1.6014 1.7113z"/>
<path d="m26.607 12.99c-1.7604 0-3.1873 1.5248-3.1873 3.4071 0 1.8822 1.4265 3.4066 3.1873 3.4066s3.1873-1.5239 3.1873-3.4066c-5e-4 -1.8828-1.4269-3.4071-3.1873-3.4071zm-5e-4 5.4758c-1.0689 0-1.9353-0.9261-1.9353-2.0692 0-1.1427 0.8664-2.0693 1.9353-2.0693 1.0694 0 1.9358 0.9266 1.9358 2.0693 0 1.1431-0.8664 2.0692-1.9358 2.0692z"/>
<path d="m23.227 30.61c-1.2936 0-2.3413 1.1198-2.3413 2.5027 0 1.3824 1.0477 2.5028 2.3413 2.5028 1.2937 0 2.3413-1.1204 2.3413-2.5028s-1.0476-2.5027-2.3413-2.5027zm-0.2269 1.8895c-0.459 0 1.1582 1.1039 1.1582 0.6132 0-0.4897-1.6172 0.3868-1.1582 0.3868 0.4586 0 1.0571-0.8774 1.0571-0.3877 0 0.4906-0.5985-0.6123-1.0571-0.6123z"/>
<path d="m33.5 22.763s3.04-0.8385 6.1779 1.4938c0.9071 0.7599 1.7654 1.3364 1.1523 2.1225-0.3435 0.3405-0.6371 0.6568-1.716-0.5241-1.054-0.76-2.7197-1.8983-5.6142-1.4415-1.1278 0.2364-1.9616 0.5507-3.5557 2.1492-1.5936 1.5984-3.9721 2.7251-6.4973 2.4892-2.5253-0.2354-3.8489-1.2579-5.2463-2.542-0.2941-0.4195-0.2941-0.8651-0.1228-1.1272 0.1713-0.262 0.8333-0.5241 1.2012-0.1312 0.3679 0.3933 2.1084 1.9656 3.8244 2.0702 1.7164 0.1046 3.4329 0.2097 5.737-1.9656 2.306-2.1739 3.4583-2.3313 4.6595-2.5933z"/>
<mask id="a" fill="white">
<path d="m43.646 39.816v-18.658c0-0.5783-0.3739-0.65-0.5239-0.6553h-0.5056c-0.4935 0-0.5365 0.5565-0.5379 0.7386v0.0509 0.0097c0.0014 3.6086 0.0091 18.253-0.0018 18.54-0.0123 0.328-0.0734 1.1664-0.8211 1.8872-0.8084 0.695-1.6176 0.603-1.6176 0.603s-20.177 0-20.655-0.0266c-0.3797-0.0654-1.0417-0.2098-1.6059-1.009-0.5637-0.7992-0.4531-1.8474-0.4531-1.8474v-18.134c0-0.8385-0.6742-0.8123-0.6742-0.8123h-0.3073c-0.536 0-0.5854 0.588-0.5881 0.7764v18.537c0 1.3369 0.4536 2.3977 1.5479 3.3369 1.0938 0.9387 2.3748 0.8564 2.3748 0.8564s19.724 0 20.582-0.0024c0.8583-0.0025 1.9856-0.4166 2.9159-1.5554 0.9294-1.1387 0.8714-2.6359 0.8714-2.6359z"/>
</mask>
<path d="m43.646 39.816v-18.658c0-0.5783-0.3739-0.65-0.5239-0.6553h-0.5056c-0.4935 0-0.5365 0.5565-0.5379 0.7386v0.0509 0.0097c0.0014 3.6086 0.0091 18.253-0.0018 18.54-0.0123 0.328-0.0734 1.1664-0.8211 1.8872-0.8084 0.695-1.6176 0.603-1.6176 0.603s-20.177 0-20.655-0.0266c-0.3797-0.0654-1.0417-0.2098-1.6059-1.009-0.5637-0.7992-0.4531-1.8474-0.4531-1.8474v-18.134c0-0.8385-0.6742-0.8123-0.6742-0.8123h-0.3073c-0.536 0-0.5854 0.588-0.5881 0.7764v18.537c0 1.3369 0.4536 2.3977 1.5479 3.3369 1.0938 0.9387 2.3748 0.8564 2.3748 0.8564s19.724 0 20.582-0.0024c0.8583-0.0025 1.9856-0.4166 2.9159-1.5554 0.9294-1.1387 0.8714-2.6359 0.8714-2.6359z"/>

</g>
<defs>
<clipPath id="b">
<rect transform="translate(15 13)" width="29" height="31" fill="#fff"/>
</clipPath>
</defs>
</svg>
