<svg width="80" height="80" viewBox="0 0 80 80" fill="none" xmlns="http://www.w3.org/2000/svg">
<rect width="60" height="60" fill="#68B738" />
    <ellipse cx="45.204" cy="34.33" rx="1.0873" ry="1.0851" fill="#fff" />
    <ellipse cx="34.331" cy="34.33" rx="1.0873" ry="1.0851" fill="#fff" />
    <ellipse cx="34.331" cy="47.351" rx="1.0873" ry="1.0851" fill="#fff" />
    <ellipse cx="39.768" cy="49.522" rx="1.0873" ry="1.0851" fill="#fff" />
    <ellipse cx="31.069" cy="40.775" rx="1.0873" ry="1.0851" fill="#fff" />
    <ellipse cx="48.466" cy="40.775" rx="1.0873" ry="1.0851" fill="#fff" />
    <ellipse cx="45.204" cy="47.351" rx="1.0873" ry="1.0851" fill="#fff" />

    <path
      d="m44.922 52.058c0.4083-0.1959 0.9011-0.1283 1.217 0.1961l1.8259 1.875c0.2675 0.2747 0.709 0.2747 0.9766 0 0.2577-0.2647 0.2577-0.6865 0-0.9511l-1.3567-1.3932c-0.4259-0.4374-0.3615-1.1493 0.0977-1.5516 2.6418-2.3138 4.318-5.7645 4.318-9.6188 0-6.9668-5.4765-12.614-12.232-12.614-6.7556 0-12.232 5.6477-12.232 12.614 0 3.8143 1.6417 7.2332 4.2361 9.5463 0.4527 0.4036 0.5132 1.11 0.09 1.5446l-1.4341 1.4727c-0.2578 0.2646-0.2578 0.6864 0 0.951 0.2675 0.2748 0.709 0.2748 0.9766 1e-4l1.8796-1.9302c0.3187-0.3272 0.8166-0.3929 1.2264-0.1914 1.5928 0.7831 3.3756 1.2214 5.2576 1.2214 1.8412 0 3.5875-0.4195 5.1537-1.1709zm-5.1537-0.2307c6.005 0 10.873-5.0202 10.873-11.213s-4.8681-11.213-10.873-11.213-10.873 5.0202-10.873 11.213 4.868 11.213 10.873 11.213zm-0.7595-11.529v-7.3571c0-0.4315 0.3498-0.7813 0.7812-0.7813 0.4315 0 0.7813 0.3498 0.7813 0.7813v8.1817c0 0.4435-0.3595 0.8031-0.8031 0.8031-0.4194 0-0.7594-0.34-0.7594-0.7594v-0.8683z"
      clip-rule="evenodd" fill="#fff" fill-rule="evenodd" />
    <rect transform="rotate(-90 39 29)" x="39" y="29" width="4" height="1.5" fill="#fff" />
    <rect x="32" y="25" width="15.5" height="1.5" rx=".75" fill="#fff" />
</svg>
