<svg fill="none" viewBox="0 0 60 60" xmlns="http://www.w3.org/2000/svg"><path fill="#68B738" d="M0 0h60v60H0z"/><g clip-path="url(#b)" fill="#fff"><path d="M35.776 31.473c-1.706 0-3.088 1.478-3.088 3.301 0 1.824 1.382 3.302 3.088 3.302 1.706 0 3.088-1.478 3.088-3.302 0-1.823-1.383-3.301-3.088-3.301zm0 5.013c-.884 0-1.6-.766-1.6-1.711 0-.946.716-1.712 1.6-1.712.884 0 1.601.766 1.601 1.712 0 .945-.717 1.711-1.601 1.711zM26.607 12.99c-1.76 0-3.187 1.525-3.187 3.407 0 1.882 1.426 3.407 3.187 3.407s3.187-1.524 3.187-3.407-1.427-3.407-3.187-3.407zm0 5.476c-1.07 0-1.936-.926-1.936-2.07 0-1.142.867-2.069 1.935-2.069 1.07 0 1.936.927 1.936 2.07 0 1.143-.866 2.069-1.936 2.069zm-3.38 12.144c-1.294 0-2.341 1.12-2.341 2.503 0 1.382 1.047 2.502 2.341 2.502 1.294 0 2.341-1.12 2.341-2.502s-1.047-2.503-2.341-2.503zM23 32.5c-.459 0 1.158 1.103 1.158.613s-1.617.386-1.158.386c.459 0 1.057-.877 1.057-.387s-.598-.613-1.057-.613zm10.5-9.737s3.04-.839 6.178 1.494c.907.76 1.765 1.336 1.152 2.122-.343.34-.637.657-1.716-.524-1.054-.76-2.72-1.898-5.614-1.441-1.128.236-1.962.55-3.556 2.149-1.593 1.598-3.972 2.725-6.497 2.49-2.525-.236-3.849-1.259-5.246-2.543-.294-.42-.294-.865-.123-1.127.171-.262.833-.524 1.201-.131.368.393 2.108 1.965 3.824 2.07 1.717.105 3.433.21 5.737-1.966 2.306-2.174 3.459-2.331 4.66-2.593z"/><path d="M43.646 39.816V21.158c0-.578-.374-.65-.524-.655h-.505c-.494 0-.537.556-.538.738v.061c.001 3.609.009 18.253-.002 18.54a2.681 2.681 0 01-.821 1.887c-.809.695-1.618.603-1.618.603s-20.177 0-20.655-.027c-.38-.065-1.042-.21-1.606-1.009-.564-.799-.453-1.847-.453-1.847V21.315c0-.838-.674-.812-.674-.812h-.307c-.536 0-.586.588-.589.776v18.537c0 1.337.454 2.398 1.548 3.337 1.094.939 2.375.856 2.375.856s19.724 0 20.582-.002c.858-.002 1.986-.417 2.916-1.555.93-1.139.872-2.636.872-2.636z"/></g><defs><clipPath id="b"><path transform="translate(15 13)" fill="#fff" d="M0 0h29v31H0z"/></clipPath></defs></svg>