<svg width="60" height="60" viewBox="0 0 60 60" fill="none" xmlns="http://www.w3.org/2000/svg">
<rect width="60" height="60" fill="#68B738"/>
<ellipse cx="35.2042" cy="24.3299" rx="1.0873" ry="1.08512" fill="white"/>
<ellipse cx="24.3311" cy="24.3299" rx="1.08731" ry="1.08512" fill="white"/>
<ellipse cx="24.3311" cy="37.3512" rx="1.08731" ry="1.08512" fill="white"/>
<ellipse cx="29.7677" cy="39.5215" rx="1.0873" ry="1.08512" fill="white"/>
<ellipse cx="21.0692" cy="30.7748" rx="1.08731" ry="1.08512" fill="white"/>
<ellipse cx="38.4661" cy="30.7748" rx="1.0873" ry="1.08512" fill="white"/>
<ellipse cx="35.2042" cy="37.3512" rx="1.0873" ry="1.08512" fill="white"/>
<mask id="path-9-inside-1" fill="white">
<path fill-rule="evenodd" clip-rule="evenodd" d="M34.9215 42.0581C35.3298 41.8622 35.8226 41.9298 36.1385 42.2542L37.9644 44.1292C38.2319 44.4039 38.6734 44.4039 38.941 44.1292C39.1987 43.8645 39.1987 43.4427 38.941 43.1781L37.5843 41.7849C37.1584 41.3475 37.2228 40.6356 37.682 40.2333C40.3238 37.9195 42 34.4688 42 30.6145C42 23.6477 36.5235 18 29.7678 18C23.0122 18 17.5356 23.6477 17.5356 30.6145C17.5356 34.4288 19.1773 37.8477 21.7717 40.1608C22.2244 40.5644 22.2849 41.2708 21.8617 41.7054L20.4276 43.1781C20.1698 43.4427 20.1698 43.8645 20.4276 44.1291C20.6951 44.4039 21.1366 44.4039 21.4042 44.1292L23.2838 42.199C23.6025 41.8718 24.1004 41.8061 24.5102 42.0076C26.103 42.7907 27.8858 43.229 29.7678 43.229C31.609 43.229 33.3553 42.8095 34.9215 42.0581ZM29.7678 41.8274C35.7728 41.8274 40.6409 36.8072 40.6409 30.6145C40.6409 24.4218 35.7728 19.4016 29.7678 19.4016C23.7628 19.4016 18.8948 24.4218 18.8948 30.6145C18.8948 36.8072 23.7628 41.8274 29.7678 41.8274ZM29.0083 30.298V26.5001V22.9409C29.0083 22.5094 29.3581 22.1596 29.7895 22.1596C30.221 22.1596 30.5708 22.5094 30.5708 22.9409V26.5001V30.298V30.8406V31.1226C30.5708 31.5661 30.2113 31.9257 29.7677 31.9257C29.3483 31.9257 29.0083 31.5857 29.0083 31.1663V30.8406V30.298Z"/>
</mask>
<path fill-rule="evenodd" clip-rule="evenodd" d="M34.9215 42.0581C35.3298 41.8622 35.8226 41.9298 36.1385 42.2542L37.9644 44.1292C38.2319 44.4039 38.6734 44.4039 38.941 44.1292C39.1987 43.8645 39.1987 43.4427 38.941 43.1781L37.5843 41.7849C37.1584 41.3475 37.2228 40.6356 37.682 40.2333C40.3238 37.9195 42 34.4688 42 30.6145C42 23.6477 36.5235 18 29.7678 18C23.0122 18 17.5356 23.6477 17.5356 30.6145C17.5356 34.4288 19.1773 37.8477 21.7717 40.1608C22.2244 40.5644 22.2849 41.2708 21.8617 41.7054L20.4276 43.1781C20.1698 43.4427 20.1698 43.8645 20.4276 44.1291C20.6951 44.4039 21.1366 44.4039 21.4042 44.1292L23.2838 42.199C23.6025 41.8718 24.1004 41.8061 24.5102 42.0076C26.103 42.7907 27.8858 43.229 29.7678 43.229C31.609 43.229 33.3553 42.8095 34.9215 42.0581ZM29.7678 41.8274C35.7728 41.8274 40.6409 36.8072 40.6409 30.6145C40.6409 24.4218 35.7728 19.4016 29.7678 19.4016C23.7628 19.4016 18.8948 24.4218 18.8948 30.6145C18.8948 36.8072 23.7628 41.8274 29.7678 41.8274ZM29.0083 30.298V26.5001V22.9409C29.0083 22.5094 29.3581 22.1596 29.7895 22.1596C30.221 22.1596 30.5708 22.5094 30.5708 22.9409V26.5001V30.298V30.8406V31.1226C30.5708 31.5661 30.2113 31.9257 29.7677 31.9257C29.3483 31.9257 29.0083 31.5857 29.0083 31.1663V30.8406V30.298Z" fill="white"/>

<rect x="22" y="15" width="15.5" height="1.5" rx="0.75" fill="white"/>
</svg>
